<svg width="72" height="72" viewBox="0 0 72 72" fill="none" xmlns="http://www.w3.org/2000/svg">
<g clip-path="url(#clip0_1272_820)">
<path d="M69.8899 67.7814H67.6399V31.9232C67.6399 30.9949 67.0493 30.1933 66.2054 29.9402L46.5469 23.3593V72H69.8899C71.0713 72 71.9993 71.0718 71.9993 69.8908C71.9992 68.7094 71.0712 67.7814 69.8899 67.7814ZM63.4213 67.7814H59.2027V59.3442H54.9841V67.7814H50.7655V57.2348C50.7655 56.0534 51.6935 55.1255 52.8749 55.1255H61.3121C62.4935 55.1255 63.4215 56.0534 63.4215 57.2348V67.7814H63.4213ZM61.3121 50.907H52.8749C51.6935 50.907 50.7655 49.9787 50.7655 48.7976C50.7655 47.6162 51.6935 46.6882 52.8749 46.6882H61.3121C62.4935 46.6882 63.4215 47.6162 63.4215 48.7976C63.4213 49.9787 62.4933 50.907 61.3121 50.907ZM61.3121 42.4698H52.8749C51.6935 42.4698 50.7655 41.5415 50.7655 40.3604C50.7655 39.179 51.6935 38.251 52.8749 38.251H61.3121C62.4935 38.251 63.4215 39.179 63.4215 40.3604C63.4213 41.5415 62.4933 42.4698 61.3121 42.4698Z" fill="#5380EA"/>
<path d="M40.9788 12.7845L7.22994 0.128709C5.7957 -0.377541 4.36133 0.677146 4.36133 2.11166V67.7814H2.11133C0.929937 67.7814 0.00195312 68.7094 0.00195312 69.8908C0.00195312 71.0719 0.929937 72 2.11133 72H42.3288C42.3288 58.3026 42.3288 49.2064 42.3288 14.7675C42.3288 13.8814 41.7804 13.0798 40.9788 12.7845ZM21.2356 67.7814H12.7984V57.2348C12.7984 56.0534 13.7264 55.1255 14.9078 55.1255H21.2358V67.7814H21.2356ZM19.1264 50.907H14.9078C13.7264 50.907 12.7984 49.9787 12.7984 48.7976C12.7984 47.6162 13.7264 46.6882 14.9078 46.6882H19.1264C20.3078 46.6882 21.2358 47.6162 21.2358 48.7976C21.2356 49.9787 20.3078 50.907 19.1264 50.907ZM19.1264 42.4698H14.9078C13.7264 42.4698 12.7984 41.5415 12.7984 40.3604C12.7984 39.179 13.7264 38.251 14.9078 38.251H19.1264C20.3078 38.251 21.2358 39.179 21.2358 40.3604C21.2356 41.5415 20.3078 42.4698 19.1264 42.4698ZM19.1264 34.0326H14.9078C13.7264 34.0326 12.7984 33.1043 12.7984 31.9232C12.7984 30.7418 13.7264 29.8138 14.9078 29.8138H19.1264C20.3078 29.8138 21.2358 30.7418 21.2358 31.9232C21.2356 33.1043 20.3078 34.0326 19.1264 34.0326ZM19.1264 25.5953H14.9078C13.7264 25.5953 12.7984 24.6671 12.7984 23.486C12.7984 22.3046 13.7264 21.3766 14.9078 21.3766H19.1264C20.3078 21.3766 21.2358 22.3046 21.2358 23.486C21.2356 24.6671 20.3078 25.5953 19.1264 25.5953ZM33.8916 67.7814H25.4544V55.1256H31.7824C32.9638 55.1256 33.8917 56.0536 33.8917 57.235V67.7814H33.8916ZM31.7822 50.907H27.5636C26.3822 50.907 25.4542 49.9787 25.4542 48.7976C25.4542 47.6162 26.3822 46.6882 27.5636 46.6882H31.7822C32.9636 46.6882 33.8916 47.6162 33.8916 48.7976C33.8916 49.9787 32.9636 50.907 31.7822 50.907ZM31.7822 42.4698H27.5636C26.3822 42.4698 25.4542 41.5415 25.4542 40.3604C25.4542 39.179 26.3822 38.251 27.5636 38.251H31.7822C32.9636 38.251 33.8916 39.179 33.8916 40.3604C33.8916 41.5415 32.9636 42.4698 31.7822 42.4698ZM31.7822 34.0326H27.5636C26.3822 34.0326 25.4542 33.1043 25.4542 31.9232C25.4542 30.7418 26.3822 29.8138 27.5636 29.8138H31.7822C32.9636 29.8138 33.8916 30.7418 33.8916 31.9232C33.8916 33.1043 32.9636 34.0326 31.7822 34.0326ZM31.7822 25.5953H27.5636C26.3822 25.5953 25.4542 24.6671 25.4542 23.486C25.4542 22.3046 26.3822 21.3766 27.5636 21.3766H31.7822C32.9636 21.3766 33.8916 22.3046 33.8916 23.486C33.8916 24.6671 32.9636 25.5953 31.7822 25.5953Z" fill="#5380EA"/>
</g>
<defs>
<clipPath id="clip0_1272_820">
<rect width="72" height="72" fill="white"/>
</clipPath>
</defs>
</svg>
