<svg width="72" height="72" viewBox="0 0 72 72" fill="none" xmlns="http://www.w3.org/2000/svg">
<g clip-path="url(#clip0_1272_812)">
<path d="M45.1669 21.5151C42.785 19.0679 39.5792 17.7204 36.1405 17.7204C29.0417 17.7204 23.2612 23.4503 23.2206 30.5096V30.5854C23.2414 35.6006 25.314 38.4379 26.9812 40.7203C28.2732 42.4885 29.1263 43.6564 29.1263 45.6257V49.1034C29.1263 52.1125 31.5614 54.5608 34.5546 54.5608H37.7258C40.7377 54.5608 43.1877 52.1125 43.1877 49.1034V45.6257C43.1877 43.6207 44.0495 42.3819 45.2421 40.6675C46.8247 38.3928 48.7923 35.5655 48.8121 30.5854V30.5096H48.8116C48.7929 27.1038 47.5004 23.9123 45.1669 21.5151V21.5151ZM34.7507 48.9364V46.1244H37.5632V48.9364H34.7507ZM40.6257 37.4551C39.9819 38.3802 39.3007 39.3602 38.7442 40.4994H33.5257C32.9358 39.3371 32.209 38.3412 31.5229 37.4024C30.0925 35.4441 28.856 33.7516 28.845 30.5524C28.8631 26.5754 32.1288 23.3448 36.1405 23.3448C40.0813 23.3448 43.1712 26.5078 43.1877 30.5524C43.1772 33.7868 41.994 35.488 40.6257 37.4551ZM69.1478 36.1428C69.9982 33.9681 70.67 31.7812 71.1495 29.6054C72.1619 25.0109 72.2707 20.6922 71.4731 16.7695C70.6172 12.5585 68.7589 8.99943 65.9502 6.19078C63.141 3.38157 59.582 1.52324 55.371 0.667402C51.4488 -0.130205 47.1301 -0.0214407 42.5351 0.99095C40.3592 1.4705 38.1724 2.14232 35.9977 2.99266C33.824 2.14342 31.6388 1.4705 29.4646 0.99095C24.8702 -0.0214407 20.5514 -0.130205 16.6282 0.667402C12.4177 1.52324 8.85869 3.38157 6.04948 6.19078C3.24083 8.99943 1.38249 12.5585 0.526655 16.7695C-0.270952 20.6922 -0.162188 25.0109 0.850202 29.6054C1.32921 31.7796 2.00267 33.9648 2.85136 36.1384C2.00157 38.3132 1.32976 40.5 0.850202 42.6758C-0.162188 47.2703 -0.270952 51.589 0.526655 55.5117C1.38249 59.7228 3.24083 63.2818 6.04948 66.0904C8.85869 68.8996 12.4177 70.7574 16.6282 71.6138C18.3553 71.9648 20.1587 72.1406 22.0291 72.1406C24.4071 72.1406 26.8927 71.8566 29.4641 71.2897C31.6399 70.8102 33.8268 70.1389 36.0021 69.2886C38.1757 70.1378 40.3609 70.8107 42.5351 71.2897C45.107 71.8566 47.5921 72.1406 49.9701 72.1406C51.84 72.1406 53.6445 71.9648 55.371 71.6138C59.582 70.7574 63.141 68.8991 65.9497 66.091C68.7589 63.2818 70.6167 59.7228 71.4731 55.5117C72.2707 51.589 72.1619 47.2703 71.149 42.6758C70.67 40.5016 69.9971 38.3165 69.1478 36.1428ZM43.7452 6.48411C45.9386 6.00072 48.0326 5.76176 50.0003 5.76176C54.9288 5.76176 59.0651 7.25975 61.9726 10.1678C66.042 14.2366 67.3499 20.7098 65.6564 28.3947C65.6278 28.5254 65.5976 28.6556 65.5668 28.7864C62.9927 24.3874 59.7155 20.1522 55.8516 16.2889C51.9883 12.425 47.753 9.14775 43.3541 6.57365C43.4848 6.54289 43.615 6.51268 43.7452 6.48411V6.48411ZM28.2539 65.7977C26.0605 66.2811 23.9671 66.5195 21.9989 66.5195C17.071 66.5195 12.9346 65.0215 10.0265 62.1134C5.95775 58.0446 4.64927 51.5715 6.34282 43.8865C6.37138 43.7558 6.40214 43.6256 6.43236 43.4949C9.00645 47.8938 12.2837 52.129 16.1476 55.9924C20.0115 59.8562 24.2467 63.1335 28.6451 65.7081C28.5149 65.7383 28.3847 65.7685 28.2539 65.7977ZM61.9726 62.1134C57.9039 66.1827 51.4302 67.4912 43.7452 65.7977C43.6156 65.7685 43.4854 65.7372 43.3552 65.707C45.558 64.4178 47.7195 62.9527 49.8141 61.3257C48.1084 60.4264 46.7461 58.962 45.9798 57.1811C42.7696 59.6343 39.4051 61.6597 35.9988 63.1933C30.432 60.6879 24.9756 56.8663 20.1246 52.0153C15.2742 47.1648 11.4526 41.7085 8.94713 36.1417C10.4946 32.7041 12.5435 29.3088 15.027 26.0716C13.2214 25.3663 11.7173 24.0562 10.7637 22.3912C9.15642 24.4654 7.70897 26.605 6.43345 28.7847C6.40324 28.6545 6.37138 28.5249 6.34282 28.3947C4.64927 20.7098 5.95775 14.2366 10.0265 10.1678C12.9346 7.25975 17.0704 5.76176 21.9989 5.76176C23.9665 5.76176 26.0611 6.00072 28.2539 6.48411C28.3836 6.51213 28.5138 6.54399 28.6434 6.5742C26.4709 7.84587 24.3373 9.28837 22.2697 10.8896C23.9341 11.8438 25.2437 13.3484 25.9485 15.1545C29.1801 12.6771 32.5694 10.6326 36.0004 9.08787C41.5677 11.5939 47.0235 15.4154 51.8746 20.2659C56.7256 25.1169 60.5466 30.5727 63.0526 36.1401C61.5217 39.5398 59.5007 42.8983 57.0535 46.103C58.8349 46.8688 60.3 48.2305 61.1998 49.9361C62.8213 47.8476 64.2809 45.6921 65.5657 43.4965C65.5959 43.6267 65.6278 43.7569 65.6564 43.8865C67.3499 51.5715 66.042 58.0446 61.9726 62.1134V62.1134ZM56.5459 53.8577C56.5459 55.4112 55.2869 56.6702 53.7334 56.6702C52.1805 56.6702 50.9215 55.4112 50.9215 53.8577C50.9215 52.3048 52.1805 51.0458 53.7334 51.0458C55.2869 51.0458 56.5459 52.3048 56.5459 53.8577ZM20.8299 18.2829C20.8299 19.8358 19.5709 21.0948 18.018 21.0948C16.4645 21.0948 15.2055 19.8358 15.2055 18.2829C15.2055 16.7294 16.4645 15.4704 18.018 15.4704C19.5709 15.4704 20.8299 16.7294 20.8299 18.2829Z" fill="#5380EA"/>
<path d="M45.1669 21.5151C42.785 19.0679 39.5792 17.7204 36.1405 17.7204C29.0417 17.7204 23.2612 23.4503 23.2206 30.5096V30.5854C23.2414 35.6006 25.314 38.4379 26.9812 40.7203C28.2732 42.4885 29.1263 43.6564 29.1263 45.6257V49.1034C29.1263 52.1125 31.5614 54.5608 34.5546 54.5608H37.7258C40.7377 54.5608 43.1877 52.1125 43.1877 49.1034V45.6257C43.1877 43.6207 44.0495 42.3819 45.2421 40.6675C46.8247 38.3928 48.7923 35.5655 48.8121 30.5854V30.5096H48.8116C48.7929 27.1038 47.5004 23.9123 45.1669 21.5151V21.5151ZM34.7507 48.9364V46.1244H37.5632V48.9364H34.7507ZM40.6257 37.4551C39.9819 38.3802 39.3007 39.3602 38.7442 40.4994H33.5257C32.9358 39.3371 32.209 38.3412 31.5229 37.4024C30.0925 35.4441 28.856 33.7516 28.845 30.5524C28.8631 26.5754 32.1288 23.3448 36.1405 23.3448C40.0813 23.3448 43.1712 26.5078 43.1877 30.5524C43.1772 33.7868 41.994 35.488 40.6257 37.4551ZM69.1478 36.1428C69.9982 33.9681 70.67 31.7812 71.1495 29.6054C72.1619 25.0109 72.2707 20.6922 71.4731 16.7695C70.6172 12.5585 68.7589 8.99943 65.9502 6.19078C63.141 3.38157 59.582 1.52324 55.371 0.667402C51.4488 -0.130205 47.1301 -0.0214407 42.5351 0.99095C40.3592 1.4705 38.1724 2.14232 35.9977 2.99266C33.824 2.14342 31.6388 1.4705 29.4646 0.99095C24.8702 -0.0214407 20.5514 -0.130205 16.6282 0.667402C12.4177 1.52324 8.85869 3.38157 6.04948 6.19078C3.24083 8.99943 1.38249 12.5585 0.526655 16.7695C-0.270952 20.6922 -0.162188 25.0109 0.850202 29.6054C1.32921 31.7796 2.00267 33.9648 2.85136 36.1384C2.00157 38.3132 1.32976 40.5 0.850202 42.6758C-0.162188 47.2703 -0.270952 51.589 0.526655 55.5117C1.38249 59.7228 3.24083 63.2818 6.04948 66.0904C8.85869 68.8996 12.4177 70.7574 16.6282 71.6138C18.3553 71.9648 20.1587 72.1406 22.0291 72.1406C24.4071 72.1406 26.8927 71.8566 29.4641 71.2897C31.6399 70.8102 33.8268 70.1389 36.0021 69.2886C38.1757 70.1378 40.3609 70.8107 42.5351 71.2897C45.107 71.8566 47.5921 72.1406 49.9701 72.1406C51.84 72.1406 53.6445 71.9648 55.371 71.6138C59.582 70.7574 63.141 68.8991 65.9497 66.091C68.7589 63.2818 70.6167 59.7228 71.4731 55.5117C72.2707 51.589 72.1619 47.2703 71.149 42.6758C70.67 40.5016 69.9971 38.3165 69.1478 36.1428ZM43.7452 6.48411C45.9386 6.00072 48.0326 5.76176 50.0003 5.76176C54.9288 5.76176 59.0651 7.25975 61.9726 10.1678C66.042 14.2366 67.3499 20.7098 65.6564 28.3947C65.6278 28.5254 65.5976 28.6556 65.5668 28.7864C62.9927 24.3874 59.7155 20.1522 55.8516 16.2889C51.9883 12.425 47.753 9.14775 43.3541 6.57365C43.4848 6.54289 43.615 6.51268 43.7452 6.48411V6.48411ZM28.2539 65.7977C26.0605 66.2811 23.9671 66.5195 21.9989 66.5195C17.071 66.5195 12.9346 65.0215 10.0265 62.1134C5.95775 58.0446 4.64927 51.5715 6.34282 43.8865C6.37138 43.7558 6.40214 43.6256 6.43236 43.4949C9.00645 47.8938 12.2837 52.129 16.1476 55.9924C20.0115 59.8562 24.2467 63.1335 28.6451 65.7081C28.5149 65.7383 28.3847 65.7685 28.2539 65.7977ZM61.9726 62.1134C57.9039 66.1827 51.4302 67.4912 43.7452 65.7977C43.6156 65.7685 43.4854 65.7372 43.3552 65.707C45.558 64.4178 47.7195 62.9527 49.8141 61.3257C48.1084 60.4264 46.7461 58.962 45.9798 57.1811C42.7696 59.6343 39.4051 61.6597 35.9988 63.1933C30.432 60.6879 24.9756 56.8663 20.1246 52.0153C15.2742 47.1648 11.4526 41.7085 8.94713 36.1417C10.4946 32.7041 12.5435 29.3088 15.027 26.0716C13.2214 25.3663 11.7173 24.0562 10.7637 22.3912C9.15642 24.4654 7.70897 26.605 6.43345 28.7847C6.40324 28.6545 6.37138 28.5249 6.34282 28.3947C4.64927 20.7098 5.95775 14.2366 10.0265 10.1678C12.9346 7.25975 17.0704 5.76176 21.9989 5.76176C23.9665 5.76176 26.0611 6.00072 28.2539 6.48411C28.3836 6.51213 28.5138 6.54399 28.6434 6.5742C26.4709 7.84587 24.3373 9.28837 22.2697 10.8896C23.9341 11.8438 25.2437 13.3484 25.9485 15.1545C29.1801 12.6771 32.5694 10.6326 36.0004 9.08787C41.5677 11.5939 47.0235 15.4154 51.8746 20.2659C56.7256 25.1169 60.5466 30.5727 63.0526 36.1401C61.5217 39.5398 59.5007 42.8983 57.0535 46.103C58.8349 46.8688 60.3 48.2305 61.1998 49.9361C62.8213 47.8476 64.2809 45.6921 65.5657 43.4965C65.5959 43.6267 65.6278 43.7569 65.6564 43.8865C67.3499 51.5715 66.042 58.0446 61.9726 62.1134V62.1134ZM56.5459 53.8577C56.5459 55.4112 55.2869 56.6702 53.7334 56.6702C52.1805 56.6702 50.9215 55.4112 50.9215 53.8577C50.9215 52.3048 52.1805 51.0458 53.7334 51.0458C55.2869 51.0458 56.5459 52.3048 56.5459 53.8577ZM20.8299 18.2829C20.8299 19.8358 19.5709 21.0948 18.018 21.0948C16.4645 21.0948 15.2055 19.8358 15.2055 18.2829C15.2055 16.7294 16.4645 15.4704 18.018 15.4704C19.5709 15.4704 20.8299 16.7294 20.8299 18.2829Z" fill="#5380EA"/>
</g>
<defs>
<clipPath id="clip0_1272_812">
<rect width="72" height="72" fill="white"/>
</clipPath>
</defs>
</svg>
