<svg width="24" height="25" viewBox="0 0 24 25" fill="none" xmlns="http://www.w3.org/2000/svg">
<g clip-path="url(#clip0_1138_1267)">
<path d="M12 22.5635C6.477 22.5635 2 18.0865 2 12.5635C2 7.04048 6.477 2.56348 12 2.56348C17.523 2.56348 22 7.04048 22 12.5635C22 18.0865 17.523 22.5635 12 22.5635ZM12 20.5635C14.1217 20.5635 16.1566 19.7206 17.6569 18.2203C19.1571 16.72 20 14.6852 20 12.5635C20 10.4417 19.1571 8.40691 17.6569 6.90662C16.1566 5.40633 14.1217 4.56348 12 4.56348C9.87827 4.56348 7.84344 5.40633 6.34315 6.90662C4.84285 8.40691 4 10.4417 4 12.5635C4 14.6852 4.84285 16.72 6.34315 18.2203C7.84344 19.7206 9.87827 20.5635 12 20.5635ZM11.003 16.5635L6.76 12.3205L8.174 10.9065L11.003 13.7355L16.659 8.07848L18.074 9.49248L11.003 16.5635Z" fill="#8C4CF5"/>
</g>
<defs>
<clipPath id="clip0_1138_1267">
<rect width="24" height="24" fill="white" transform="translate(0 0.563477)"/>
</clipPath>
</defs>
</svg>
