<svg width="24" height="24" viewBox="0 0 24 24" fill="none" xmlns="http://www.w3.org/2000/svg">
<path d="M11.9632 2.38184C0.554152 2.62084 -1.81985 17.9298 8.85215 21.6018C9.35015 21.6948 9.53615 21.3828 9.53615 21.1238V19.4438C6.74615 20.0448 6.15615 18.1268 6.15615 18.1268C5.96917 17.5264 5.57091 17.0141 5.03515 16.6848C4.13315 16.0728 5.10715 16.0828 5.10715 16.0828C5.42624 16.1246 5.73122 16.2401 5.99785 16.4203C6.26448 16.6005 6.48543 16.8403 6.64315 17.1208C6.92602 17.6133 7.39088 17.975 7.93771 18.1281C8.48455 18.2813 9.06966 18.2137 9.56715 17.9398C9.61915 17.4398 9.84215 16.9748 10.2002 16.6228C7.97015 16.3728 5.63615 15.5228 5.63615 11.7478C5.62288 10.7643 5.99551 9.8148 6.67415 9.10284C6.35958 8.24564 6.39661 7.29885 6.77715 6.46884C6.77715 6.46884 7.61715 6.20884 9.53715 7.50584C11.1809 7.06059 12.9134 7.06059 14.5572 7.50584C16.4652 6.22984 17.3052 6.46784 17.3052 6.46784C17.6702 7.29584 17.7032 8.23084 17.3982 9.08184C18.0773 9.79337 18.4498 10.7433 18.4352 11.7268C18.4352 15.5128 16.0912 16.3528 13.8612 16.5918C14.8992 17.1418 14.4632 20.6778 14.5252 21.1138C14.5252 21.3728 14.7012 21.6838 15.2202 21.5908C25.8622 17.9508 23.3722 2.62084 11.9632 2.38184Z" fill="black"/>
</svg>
