<svg width="146" height="35" viewBox="0 0 146 35" fill="none" xmlns="http://www.w3.org/2000/svg">
<g clip-path="url(#clip0_1298_799)">
<path d="M16.1221 31.5076V2.41666H24.0198V25.1439H35.7812V31.5076H16.1221Z" fill="black"/>
<rect x="37.2471" y="3.32007" width="20.5159" height="7.7876" rx="3.8938" transform="rotate(-9.31302 37.2471 3.32007)" fill="#007BFF"/>
<ellipse cx="42.7115" cy="6.6593" rx="1.65546" ry="1.96581" transform="rotate(-9.31302 42.7115 6.6593)" fill="#121632"/>
<ellipse cx="53.381" cy="4.90979" rx="1.65546" ry="1.96581" transform="rotate(-9.31302 53.381 4.90979)" fill="#121632"/>
<rect x="37.2471" y="14.325" width="20.5159" height="7.7876" rx="3.8938" transform="rotate(-9.31302 37.2471 14.325)" fill="#007BFF"/>
<ellipse cx="42.7115" cy="17.6642" rx="1.65546" ry="1.96581" transform="rotate(-9.31302 42.7115 17.6642)" fill="#121632"/>
<ellipse cx="53.381" cy="15.9147" rx="1.65546" ry="1.96581" transform="rotate(-9.31302 53.381 15.9147)" fill="#121632"/>
<rect x="37.2471" y="25.3301" width="20.5159" height="7.7876" rx="3.8938" transform="rotate(-9.31302 37.2471 25.3301)" fill="#007BFF"/>
<ellipse cx="42.7115" cy="28.6693" rx="1.65546" ry="1.96581" transform="rotate(-9.31302 42.7115 28.6693)" fill="#121632"/>
<ellipse cx="53.381" cy="26.9198" rx="1.65546" ry="1.96581" transform="rotate(-9.31302 53.381 26.9198)" fill="#121632"/>
<path d="M68.5825 2.41666L74.5484 22.928H74.7757L80.7416 2.41666H89.662L80.0597 31.5076H69.2643L59.662 2.41666H68.5825ZM100.362 2.41666V31.5076H92.4639V2.41666H100.362ZM129.275 2.41666V31.5076H122.684L112.173 16.2235H112.002V31.5076H104.104V2.41666H110.809L121.15 17.6439H121.377V2.41666H129.275Z" fill="black"/>
</g>
<defs>
<clipPath id="clip0_1298_799">
<rect width="146" height="33.015" fill="white"/>
</clipPath>
</defs>
</svg>
