<svg width="151" height="45" viewBox="0 0 151 45" fill="none" xmlns="http://www.w3.org/2000/svg">
<g clip-path="url(#clip0_1189_847)">
<path d="M2.34375 40.5V4.13636H12.2159V32.5455H26.9176V40.5H2.34375Z" fill="black"/>
<rect x="60.2715" y="1.60962" width="4.00701" height="10.6298" rx="2.0035" transform="rotate(8.28448 60.2715 1.60962)" fill="#121632"/>
<rect x="68.0894" y="5.03271" width="4.00701" height="10.6298" rx="2.0035" transform="rotate(84.0476 68.0894 5.03271)" fill="#121632"/>
<circle cx="51" cy="22.5" r="19.153" transform="rotate(-9.31302 51 22.5)" fill="#121632"/>
<rect x="35.7158" y="19.3977" width="29.1612" height="11.0692" rx="4" transform="rotate(-9.31302 35.7158 19.3977)" fill="#007BFF"/>
<ellipse cx="43.4827" cy="24.1441" rx="2.35306" ry="2.79419" transform="rotate(-9.31302 43.4827 24.1441)" fill="#121632"/>
<ellipse cx="58.6487" cy="21.6573" rx="2.35306" ry="2.79419" transform="rotate(-9.31302 58.6487 21.6573)" fill="#121632"/>
<path d="M102.972 13.2273L93.8097 40.5H82.446L73.2841 13.2273H83.5824L87.9858 31.267H88.2699L92.6733 13.2273H102.972ZM105.759 40.5V13.2273H115.56V40.5H105.759ZM110.66 10.3864C109.334 10.3864 108.198 9.94839 107.251 9.07244C106.304 8.1965 105.83 7.14299 105.83 5.91193C105.83 4.68087 106.304 3.62737 107.251 2.75142C108.198 1.87547 109.334 1.4375 110.66 1.4375C111.997 1.4375 113.134 1.87547 114.069 2.75142C115.016 3.62737 115.489 4.68087 115.489 5.91193C115.489 7.14299 115.016 8.1965 114.069 9.07244C113.134 9.94839 111.997 10.3864 110.66 10.3864ZM130.355 25.1591V40.5H120.554V13.2273H129.858V18.4119H130.142C130.734 16.6837 131.776 15.3284 133.267 14.3459C134.771 13.3634 136.522 12.8722 138.523 12.8722C140.452 12.8722 142.127 13.3161 143.548 14.2038C144.98 15.0798 146.087 16.2872 146.868 17.826C147.661 19.3648 148.052 21.1226 148.04 23.0994V40.5H138.239V25.1591C138.251 23.8097 137.907 22.7502 137.209 21.9808C136.522 21.2114 135.564 20.8267 134.333 20.8267C133.528 20.8267 132.823 21.0043 132.22 21.3594C131.628 21.7027 131.172 22.1998 130.852 22.8509C130.533 23.4901 130.367 24.2595 130.355 25.1591Z" fill="black"/>
</g>
<defs>
<clipPath id="clip0_1189_847">
<rect width="151" height="44" fill="white" transform="translate(0 0.5)"/>
</clipPath>
</defs>
</svg>
