<svg width="34" height="34" viewBox="0 0 34 34" fill="none" xmlns="http://www.w3.org/2000/svg">
<path d="M2.83203 16.9993C2.83203 11.6571 2.83203 8.98527 4.49236 7.32635C6.1527 5.66743 8.82312 5.66602 14.1654 5.66602H19.832C25.1743 5.66602 27.8461 5.66602 29.505 7.32635C31.1639 8.98668 31.1654 11.6571 31.1654 16.9993C31.1654 22.3416 31.1654 25.0134 29.505 26.6723C27.8447 28.3313 25.1743 28.3327 19.832 28.3327H14.1654C8.82312 28.3327 6.15128 28.3327 4.49236 26.6723C2.83345 25.012 2.83203 22.3416 2.83203 16.9993Z" stroke="black" stroke-width="1.5"/>
<path d="M8.5 11.332L11.5586 13.882C14.161 16.0495 15.4615 17.1333 17 17.1333C18.5385 17.1333 19.8404 16.0495 22.4414 13.8806L25.5 11.332" stroke="black" stroke-width="1.5" stroke-linecap="round"/>
</svg>
