<svg width="165" height="165" viewBox="0 0 314 314" fill="none" xmlns="http://www.w3.org/2000/svg">
<rect x="223.16" y="7.91786" width="28.5954" height="75.8582" rx="14.2977" transform="rotate(8.28448 223.16 7.91786)" fill="#121632"/>
<rect x="278.953" y="32.3466" width="28.5954" height="75.8582" rx="14.2977" transform="rotate(84.0476 278.953 32.3466)" fill="#121632"/>
<circle cx="157" cy="157" r="136.183" transform="rotate(-9.31302 157 157)" fill="#121632" stroke="#818181"/>
<rect x="48.5011" y="135.273" width="207.105" height="77.9942" rx="3.5" transform="rotate(-9.31302 48.5011 135.273)" fill="#007BFF"/>
<path d="M91.8673 183.121L89.9409 171.37C88.3237 161.505 95.0097 152.197 104.875 150.58V150.58C114.739 148.962 124.047 155.648 125.665 165.513L127.591 177.264" stroke="#121632" stroke-width="16" stroke-linecap="round"/>
<path d="M191.364 165.386L189.438 153.635C187.821 143.77 194.507 134.462 204.372 132.845V132.845C214.236 131.228 223.544 137.914 225.162 147.778L227.088 159.53" stroke="#121632" stroke-width="16" stroke-linecap="round"/>
</svg>
